<?xml version="1.0" encoding="UTF-8" standalone="no"?>
<!-- Created with Inkscape (http://www.inkscape.org/) -->

<svg
   width="210mm"
   height="210mm"
   viewBox="0 0 210 210"
   version="1.1"
   id="svg1"
   xmlns="http://www.w3.org/2000/svg"
   xmlns:svg="http://www.w3.org/2000/svg">
  <defs
     id="defs1" />
  <g
     id="layer1">
    <g
       id="g1">
      <path
         style="color:#000000;fill:#33c856;stroke:none;stroke-width:0.0999999;stroke-linejoin:round;stroke-dasharray:none;stroke-opacity:1;fill-opacity:1"
         d="M 166.98896,142.19064 109.49017,51.816993 C 106.4092,46.466406 96.653456,48.166026 96.653456,56.238166 l 1.3e-5,7.154975 c -2.5e-5,5.586783 1.46737,9.328066 4.255331,14.1695 l 42.69588,64.663219 c 1.79111,3.11034 1.79116,6.93897 5e-5,10.04932 l -14.98928,26.02997 c -1.79015,3.10876 -5.10435,5.02468 -8.69168,5.02468 H 90.010514 c -3.587345,0 -6.901536,-1.91592 -8.6917,-5.02468 L 66.329541,152.27518 c -1.791126,-3.11045 -1.79141,-6.93908 -7.64e-4,-10.04978 l 0.786247,-1.36588 c 1.275666,-2.21605 1.947111,-4.72821 1.947197,-7.28522 l 3.08e-4,-9.35883 c 8.7e-5,-4.32501 -12.0087,-6.52285 -14.167207,-2.7749 l -11.950013,20.75007 c -1.803313,3.13223 -1.803313,6.98752 0,10.11975 l 26.615505,46.22037 c 1.810336,3.14432 5.162613,5.08199 8.790869,5.08118 h 53.230897 c 3.62831,8.1e-4 6.98054,-1.93686 8.79093,-5.08118 l 26.61545,-46.22037 c 1.80332,-3.13223 1.80332,-6.98752 0,-10.11975 z"
         id="path2-2-2-4-5" />
      <path
         style="color:#000000;fill:#10cbff;stroke:none;stroke-width:0.0999999;stroke-linejoin:round;stroke-dasharray:none;stroke-opacity:1;fill-opacity:1"
         d="m 42.94531,67.809345 57.49879,90.373635 c 3.08099,5.3506 12.83672,3.65097 12.83672,-4.42116 l -1e-5,-7.15497 c 3e-5,-5.58679 -1.46738,-9.32807 -4.25535,-14.16951 L 66.329592,67.774131 c -1.791114,-3.110342 -1.791127,-6.938969 -5e-5,-10.049323 L 81.318815,31.694827 c 1.790164,-3.108757 5.104355,-5.024685 8.6917,-5.024685 h 29.913255 c 3.58733,0 6.90153,1.915928 8.69169,5.024685 l 14.98927,26.029981 c 1.79111,3.110453 1.79142,6.93908 7.6e-4,10.049779 l -0.78625,1.365884 c -1.27565,2.216036 -1.94708,4.728209 -1.94719,7.285214 l -3e-4,9.358829 c -1.1e-4,4.325001 12.0087,6.52285 14.1672,2.77491 l 11.95001,-20.750079 c 1.80332,-3.13224 1.80332,-6.987511 0,-10.119751 L 140.37347,11.469223 C 138.56313,8.3248925 135.21084,6.3872313 131.58259,6.3880512 H 78.351684 C 74.723379,6.3872313 71.371151,8.3248925 69.560753,11.469223 L 42.94531,57.689594 c -1.803314,3.13224 -1.803314,6.987511 0,10.119751 z"
         id="path2-2-2-4-5-7" />
    </g>
  </g>
</svg>
