<?xml version="1.0" encoding="UTF-8" standalone="no"?>
<!-- Created with Inkscape (http://www.inkscape.org/) -->

<svg
   width="200mm"
   height="38mm"
   viewBox="0 0 200 38"
   version="1.1"
   id="svg1"
   inkscape:version="1.3.1 (9b9bdc1480, 2023-11-25, custom)"
   sodipodi:docname="tittel.svg"
   xmlns:inkscape="http://www.inkscape.org/namespaces/inkscape"
   xmlns:sodipodi="http://sodipodi.sourceforge.net/DTD/sodipodi-0.dtd"
   xmlns="http://www.w3.org/2000/svg"
   xmlns:svg="http://www.w3.org/2000/svg">
  <sodipodi:namedview
     id="namedview1"
     pagecolor="#ffffff"
     bordercolor="#000000"
     borderopacity="0.25"
     inkscape:showpageshadow="2"
     inkscape:pageopacity="0.0"
     inkscape:pagecheckerboard="0"
     inkscape:deskcolor="#d1d1d1"
     inkscape:document-units="mm"
     inkscape:zoom="1.3719136"
     inkscape:cx="332.38245"
     inkscape:cy="95.487064"
     inkscape:window-width="1920"
     inkscape:window-height="970"
     inkscape:window-x="0"
     inkscape:window-y="0"
     inkscape:window-maximized="1"
     inkscape:current-layer="layer1" />
  <defs
     id="defs1" />
  <g
     inkscape:label="Layer 1"
     inkscape:groupmode="layer"
     id="layer1">
    <g
       id="g1"
       transform="matrix(1.1566636,0,0,1.1566636,-23.999532,-119.03582)"
       style="stroke-width:0.864556">
      <path
         style="font-weight:bold;font-size:29.0937px;font-family:Nunito;-inkscape-font-specification:'Nunito Bold';letter-spacing:-1.07545px;display:inline;fill:#33c856;fill-opacity:1;stroke-width:0.0864556;stroke-linecap:round;stroke-linejoin:round"
         d="m 45.288906,134.68294 q -0.87281,0 -1.33831,-0.4655 -0.4655,-0.4655 -0.4655,-1.3674 v -16.26338 q 0,-0.9019 0.4655,-1.3674 0.4655,-0.4655 1.30922,-0.4655 0.87281,0 1.33831,0.4655 0.4655,0.4655 0.4655,1.3674 v 2.26931 l -0.32003,-0.87281 q 0.4364,-1.48378 1.77471,-2.38569 1.36741,-0.9019 3.17122,-0.9019 1.86199,0 3.25849,0.9019 1.42559,0.90191 2.21112,2.56025 0.78553,1.62925 0.78553,3.92765 0,2.26931 -0.78553,3.95674 -0.78553,1.65834 -2.18202,2.56025 -1.3965,0.9019 -3.28759,0.9019 -1.77472,0 -3.11303,-0.87281 -1.33831,-0.9019 -1.80381,-2.32749 h 0.34913 v 6.54608 q 0,0.9019 -0.4946,1.3674 -0.4655,0.4655 -1.33831,0.4655 z m 5.38234,-7.94258 q 1.07646,0 1.89109,-0.52368 0.81462,-0.52369 1.25103,-1.54197 0.4655,-1.04737 0.4655,-2.58934 0,-2.3275 -0.98919,-3.46215 -0.98918,-1.16375 -2.61843,-1.16375 -1.07647,0 -1.89109,0.52369 -0.81463,0.49459 -1.28013,1.54196 -0.4364,1.01828 -0.4364,2.56025 0,2.2984 0.98918,3.49124 0.98919,1.16375 2.61844,1.16375 z m 15.68247,2.7639 q -2.21112,0 -3.84036,-0.9019 -1.62925,-0.90191 -2.53116,-2.56025 -0.9019,-1.68743 -0.9019,-3.95674 0,-1.71653 0.49459,-3.05484 0.52369,-1.3674 1.48378,-2.32749 0.96009,-0.98919 2.2984,-1.48378 1.33831,-0.52369 2.99665,-0.52369 2.21113,0 3.84037,0.9019 1.62925,0.90191 2.53116,2.56025 0.9019,1.65834 0.9019,3.92765 0,1.71653 -0.52369,3.08393 -0.49459,1.36741 -1.45468,2.35659 -0.96009,0.96009 -2.2984,1.48378 -1.33831,0.49459 -2.99666,0.49459 z m 0,-2.7639 q 1.07647,0 1.8911,-0.52368 0.81462,-0.52369 1.25102,-1.54197 0.4655,-1.04737 0.4655,-2.58934 0,-2.3275 -0.98918,-3.46215 -0.98919,-1.16375 -2.61844,-1.16375 -1.07646,0 -1.89109,0.52369 -0.81462,0.49459 -1.28012,1.54196 -0.4364,1.01828 -0.4364,2.56025 0,2.2984 0.98918,3.49124 0.98919,1.16375 2.61843,1.16375 z m 10.99839,2.70572 q -0.87281,0 -1.33831,-0.4655 -0.4655,-0.4946 -0.4655,-1.3965 v -10.99742 q 0,-0.9019 0.4655,-1.3674 0.4655,-0.4655 1.30922,-0.4655 0.84372,0 1.30921,0.4655 0.4655,0.4655 0.4655,1.3674 v 1.97837 l -0.32003,-0.72734 q 0.64006,-1.54197 1.97837,-2.3275 1.36741,-0.81462 3.08394,-0.81462 1.71652,0 2.82209,0.64006 1.10556,0.64006 1.65834,1.94928 0.55278,1.28012 0.55278,3.25849 v 7.04068 q 0,0.9019 -0.4655,1.3965 -0.4655,0.4655 -1.33831,0.4655 -0.87281,0 -1.36741,-0.4655 -0.46549,-0.4946 -0.46549,-1.3965 v -6.86611 q 0,-1.65834 -0.64007,-2.41478 -0.61096,-0.75644 -1.92018,-0.75644 -1.60015,0 -2.56025,1.01828 -0.93099,0.98919 -0.93099,2.64753 v 6.37152 q 0,1.862 -1.83291,1.862 z m 19.3483,0.0582 q -1.25102,0 -2.64752,-0.26185 -1.3965,-0.26184 -2.50206,-0.9019 -0.4655,-0.29094 -0.66916,-0.66916 -0.17456,-0.40731 -0.14546,-0.78553 0.0582,-0.40731 0.29093,-0.69825 0.26185,-0.29093 0.64006,-0.37821 0.40732,-0.0873 0.87281,0.14547 1.16375,0.55278 2.18203,0.78552 1.01828,0.20366 2.00747,0.20366 1.3965,0 2.06565,-0.4655 0.69825,-0.49459 0.69825,-1.28012 0,-0.66916 -0.4655,-1.01828 -0.43641,-0.37822 -1.33831,-0.55278 l -2.90937,-0.55278 q -1.80381,-0.34913 -2.7639,-1.30922 -0.931,-0.98918 -0.931,-2.53115 0,-1.3965 0.75644,-2.41478 0.78553,-1.01828 2.15293,-1.57106 1.3674,-0.55278 3.14212,-0.55278 1.28012,0 2.38568,0.29094 1.134664,0.26184 2.182034,0.84372 0.43641,0.23275 0.58187,0.61096 0.17457,0.37822 0.0873,0.78553 -0.0873,0.37822 -0.34912,0.69825 -0.26184,0.29094 -0.66915,0.37822 -0.37822,0.0582 -0.87282,-0.17456 -0.901904,-0.4655 -1.745624,-0.66916 -0.81462,-0.20365 -1.57106,-0.20365 -1.42559,0 -2.12384,0.49459 -0.66915,0.49459 -0.66915,1.30922 0,0.61097 0.40731,1.01828 0.40731,0.40731 1.25103,0.55278 l 2.90937,0.55278 q 1.891094,0.34912 2.851184,1.28012 0.98919,0.931 0.98919,2.50206 0,2.12384 -1.65834,3.34577 -1.658354,1.19285 -4.422254,1.19285 z m 14.402374,0 q -2.21112,0 -3.84037,-0.90191 -1.62924,-0.9019 -2.53115,-2.56024 -0.9019,-1.68744 -0.9019,-3.95675 0,-1.71653 0.49459,-3.05484 0.52369,-1.3674 1.48378,-2.32749 0.96009,-0.98919 2.2984,-1.48378 1.33831,-0.52369 2.99665,-0.52369 2.21112,0 3.84037,0.90191 1.62925,0.9019 2.53115,2.56024 0.90191,1.65834 0.90191,3.92765 0,1.71653 -0.52369,3.08394 -0.49459,1.3674 -1.45468,2.35658 -0.9601,0.9601 -2.29841,1.48378 -1.33831,0.4946 -2.99665,0.4946 z m 0,-2.76391 q 1.07647,0 1.89109,-0.52368 0.81463,-0.52369 1.25103,-1.54197 0.4655,-1.04737 0.4655,-2.58934 0,-2.32749 -0.98918,-3.46215 -0.98919,-1.16375 -2.61844,-1.16375 -1.07646,0 -1.89109,0.52369 -0.81462,0.49459 -1.28012,1.54197 -0.43641,1.01828 -0.43641,2.56024 0,2.29841 0.98919,3.49125 0.98919,1.16374 2.61843,1.16374 z m 11.05658,2.70572 q -0.90191,0 -1.3965,-0.4655 -0.4655,-0.49459 -0.4655,-1.3965 v -10.99742 q 0,-0.9019 0.4655,-1.3674 0.4655,-0.4655 1.30921,-0.4655 0.84372,0 1.30922,0.4655 0.4655,0.4655 0.4655,1.3674 v 1.8329 h -0.29094 q 0.40731,-1.74562 1.60016,-2.64752 1.19284,-0.90191 3.17121,-1.07647 0.61097,-0.0582 0.96009,0.32003 0.37822,0.34913 0.43641,1.10556 0.0582,0.72734 -0.34913,1.19284 -0.37822,0.43641 -1.16375,0.52369 l -0.64006,0.0582 q -1.77471,0.17456 -2.67662,1.10556 -0.9019,0.9019 -0.9019,2.56025 v 6.02239 q 0,0.90191 -0.4655,1.3965 -0.4655,0.4655 -1.3674,0.4655 z m 13.00582,0.0582 q -1.54197,0 -2.76391,-0.58187 -1.19284,-0.61097 -1.89109,-1.62925 -0.66915,-1.01828 -0.66915,-2.2984 0,-1.57106 0.81462,-2.47297 0.81463,-0.931 2.64753,-1.33831 1.8329,-0.40731 4.91683,-0.40731 h 1.45469 v 2.09475 h -1.42559 q -1.80381,0 -2.88028,0.17456 -1.07647,0.17456 -1.54197,0.61097 -0.4364,0.40731 -0.4364,1.16374 0,0.9601 0.66915,1.57106 0.66916,0.61097 1.862,0.61097 0.96009,0 1.68744,-0.4364 0.75643,-0.4655 1.19284,-1.25103 0.4364,-0.78553 0.4364,-1.80381 v -3.34578 q 0,-1.45468 -0.64006,-2.09474 -0.64006,-0.64007 -2.15293,-0.64007 -0.84372,0 -1.83291,0.20366 -0.96009,0.20366 -2.03655,0.69825 -0.55278,0.26184 -0.98919,0.14547 -0.40731,-0.11638 -0.64006,-0.4655 -0.23275,-0.37822 -0.23275,-0.81463 0,-0.4364 0.23275,-0.84371 0.23275,-0.43641 0.78553,-0.64006 1.33831,-0.55278 2.56024,-0.78553 1.25103,-0.23275 2.26931,-0.23275 2.09475,0 3.43306,0.64006 1.3674,0.64006 2.03656,1.94928 0.66915,1.28012 0.66915,3.31668 v 6.98249 q 0,0.9019 -0.4364,1.39649 -0.43641,0.4655 -1.25103,0.4655 -0.81462,0 -1.28012,-0.4655 -0.43641,-0.49459 -0.43641,-1.39649 v -1.3965 h 0.23275 q -0.20366,1.01828 -0.81462,1.77471 -0.58188,0.72735 -1.48378,1.13466 -0.90191,0.40731 -2.06565,0.40731 z m 11.95849,-0.0582 q -0.87281,0 -1.33831,-0.4655 -0.46549,-0.49459 -0.46549,-1.3965 v -10.99742 q 0,-0.9019 0.46549,-1.3674 0.4655,-0.4655 1.30922,-0.4655 0.84372,0 1.30922,0.4655 0.4655,0.4655 0.4655,1.3674 v 1.97837 l -0.32003,-0.72734 q 0.64006,-1.54197 1.97837,-2.3275 1.3674,-0.81462 3.08393,-0.81462 1.71653,0 2.82209,0.64006 1.10556,0.64006 1.65834,1.94928 0.55278,1.28012 0.55278,3.25849 v 7.04068 q 0,0.9019 -0.4655,1.3965 -0.4655,0.4655 -1.33831,0.4655 -0.87281,0 -1.3674,-0.4655 -0.4655,-0.4946 -0.4655,-1.3965 v -6.86611 q 0,-1.65834 -0.64006,-2.41478 -0.61097,-0.75644 -1.92019,-0.75644 -1.60015,0 -2.56024,1.01828 -0.931,0.98919 -0.931,2.64753 v 6.37152 q 0,1.862 -1.83291,1.862 z m 19.61015,0.0582 q -1.862,0 -3.28759,-0.90191 -1.3965,-0.9019 -2.18203,-2.56024 -0.78553,-1.68744 -0.78553,-3.95674 0,-2.29841 0.78553,-3.92765 0.78553,-1.65834 2.18203,-2.56025 1.42559,-0.9019 3.28759,-0.9019 1.77471,0 3.08393,0.87281 1.33831,0.87281 1.80381,2.2984 h -0.32003 v -7.56436 q 0,-0.90191 0.4655,-1.36741 0.4655,-0.4655 1.33831,-0.4655 0.87281,0 1.33831,0.4655 0.49459,0.4655 0.49459,1.36741 v 17.28166 q 0,0.9019 -0.4655,1.39649 -0.4655,0.4655 -1.33831,0.4655 -0.87281,0 -1.33831,-0.4655 -0.4655,-0.49459 -0.4655,-1.39649 v -2.26932 l 0.32003,0.87281 q -0.4364,1.51287 -1.77471,2.41478 -1.33831,0.9019 -3.14212,0.9019 z m 1.01828,-2.7639 q 1.07646,0 1.89109,-0.52369 0.81462,-0.52369 1.25103,-1.54196 0.46549,-1.04738 0.46549,-2.58934 0,-2.3275 -0.98918,-3.46215 -0.98919,-1.16375 -2.61843,-1.16375 -1.07647,0 -1.89109,0.52368 -0.81463,0.4946 -1.28013,1.54197 -0.4364,1.01828 -0.4364,2.56025 0,2.2984 0.98918,3.49124 0.98919,1.16375 2.61844,1.16375 z m 16.38072,2.7639 q -2.21112,0 -3.84037,-0.90191 -1.62925,-0.9019 -2.53115,-2.56024 -0.90191,-1.68744 -0.90191,-3.95674 0,-1.71653 0.4946,-3.05484 0.52368,-1.36741 1.48377,-2.3275 0.9601,-0.98918 2.29841,-1.48378 1.33831,-0.52368 2.99665,-0.52368 2.21112,0 3.84037,0.9019 1.62924,0.90191 2.53115,2.56025 0.9019,1.65834 0.9019,3.92765 0,1.71652 -0.52368,3.08393 -0.4946,1.3674 -1.45469,2.35659 -0.96009,0.96009 -2.2984,1.48378 -1.33831,0.49459 -2.99665,0.49459 z m 0,-2.7639 q 1.07647,0 1.89109,-0.52369 0.81462,-0.52369 1.25103,-1.54196 0.4655,-1.04738 0.4655,-2.58934 0,-2.3275 -0.98919,-3.46215 -0.98918,-1.16375 -2.61843,-1.16375 -1.07647,0 -1.89109,0.52368 -0.81463,0.4946 -1.28013,1.54197 -0.4364,1.01828 -0.4364,2.56025 0,2.2984 0.98919,3.49124 0.98918,1.16375 2.61843,1.16375 z"
         id="text1-0-7"
         aria-label="ponsorando" />
      <path
         style="color:#000000;display:inline;fill:#33c856;fill-opacity:1;stroke:none;stroke-width:0.0864555;stroke-linejoin:round;stroke-dasharray:none;stroke-opacity:1"
         d="m 41.787096,123.5232 -8.26364,-12.98836 c -0.44279,-0.76898 -1.84487,-0.52471 -1.84487,0.6354 v 1.02831 c 0,0.80292 0.21089,1.34061 0.61157,2.03642 l 6.13619,9.2933 c 0.25741,0.44701 0.25742,0.99726 0,1.44427 l -2.15423,3.74099 c -0.25728,0.44678 -0.73359,0.72214 -1.24916,0.72214 h -4.29909 c -0.51556,0 -0.99188,-0.27536 -1.24916,-0.72214 l -2.15423,-3.74099 c -0.25742,-0.44703 -0.25746,-0.99727 -1.1e-4,-1.44434 l 0.113,-0.1963 c 0.18333,-0.31849 0.27983,-0.67953 0.27985,-1.04702 l 4e-5,-1.34504 c 10e-6,-0.62158 -1.72587,-0.93745 -2.03609,-0.3988 l -1.71744,2.98216 c -0.25917,0.45016 -0.25917,1.00424 0,1.4544 l 3.82514,6.64272 c 0.26018,0.4519 0.74197,0.73038 1.26341,0.73026 h 7.65027 c 0.52145,1.2e-4 1.00323,-0.27836 1.26342,-0.73026 l 3.82513,-6.64272 c 0.25917,-0.45016 0.25917,-1.00424 0,-1.4544 z"
         id="path2-2-2-4-5-5-2"
         sodipodi:nodetypes="ccccccccccccccccccccccccc" />
      <path
         style="color:#000000;display:inline;fill:#10cbff;fill-opacity:1;stroke:none;stroke-width:0.0864555;stroke-linejoin:round;stroke-dasharray:none;stroke-opacity:1"
         d="m 23.959726,112.83324 8.26364,12.98836 c 0.4428,0.76898 1.84488,0.52471 1.84488,-0.6354 v -1.0283 c 0,-0.80293 -0.21089,-1.34062 -0.61158,-2.03642 l -6.13618,-9.2933 c -0.25742,-0.44702 -0.25742,-0.99726 -10e-6,-1.44428 l 2.15423,-3.74099 c 0.25728,-0.44678 0.7336,-0.72214 1.24916,-0.72214 h 4.29909 c 0.51557,0 0.99188,0.27536 1.24916,0.72214 l 2.15423,3.74099 c 0.25742,0.44703 0.25746,0.99728 1.1e-4,1.44434 l -0.113,0.1963 c -0.18333,0.31849 -0.27983,0.67953 -0.27984,1.04702 l -5e-5,1.34504 c -1e-5,0.62158 1.72588,0.93746 2.03609,0.39881 l 1.71744,-2.98217 c 0.25917,-0.45016 0.25917,-1.00424 0,-1.4544 l -3.82514,-6.64272 c -0.26018,-0.4519 -0.74196,-0.73038 -1.26341,-0.73026 h -7.65027 c -0.52145,-1.2e-4 -1.00323,0.27836 -1.26342,0.73026 l -3.82513,6.64272 c -0.25917,0.45016 -0.25917,1.00424 0,1.4544 z"
         id="path2-2-2-4-5-7-0-4"
         sodipodi:nodetypes="ccccccccccccccccccccccccc" />
    </g>
  </g>
</svg>
